<?xml version="1.0" encoding="UTF-8"?>
<svg xmlns="http://www.w3.org/2000/svg" viewBox="0 0 142.9 156.84">
  <defs>
    <style>
      .cls-1 {
        fill: none;
      }

      .cls-1, .cls-2 {
        stroke: #d1a973;
        stroke-miterlimit: 10;
      }

      .cls-2 {
        fill: #d1a973;
      }
    </style>
  </defs>
  <g id="Layer_5" data-name="Layer 5">
    <polyline class="cls-1" points="51.05 75.71 51.05 53.67 61.77 53.67 61.77 106.65 50.87 106.65 50.87 103.99"/>
    <polyline class="cls-1" points="76.96 84.86 76.96 106.9 66.23 106.9 66.23 53.93 77.13 53.93 77.13 56.58"/>
  </g>
  <g id="Layer_3" data-name="Layer 3">
    <ellipse class="cls-2" cx="50.72" cy="101.67" rx=".57" ry=".65"/>
    <ellipse class="cls-2" cx="50.87" cy="77.71" rx=".57" ry=".65"/>
    <ellipse class="cls-2" cx="50.84" cy="96.83" rx="1.01" ry="1.15"/>
    <ellipse class="cls-2" cx="50.84" cy="83.09" rx="1.01" ry="1.15"/>
    <ellipse class="cls-1" cx="50.9" cy="90.12" rx="2.28" ry="2.61"/>
    <ellipse class="cls-2" cx="76.96" cy="82.69" rx=".57" ry=".65"/>
    <ellipse class="cls-2" cx="77.11" cy="58.73" rx=".57" ry=".65"/>
    <ellipse class="cls-2" cx="77.08" cy="77.86" rx="1.01" ry="1.15"/>
    <ellipse class="cls-2" cx="77.08" cy="64.11" rx="1.01" ry="1.15"/>
    <ellipse class="cls-1" cx="77.14" cy="71.15" rx="2.28" ry="2.61"/>
    <path class="cls-1" d="M51.38,48.38c3.25-1.09,5.84.29,5.96-.08.16-.53-4.81-4.15-9.34-2.25-.44.19-1.85.79-2.9,2.25-3.05,4.24.26,10.96.7,10.88.31-.05-1.06-3.4.67-6.69,1.54-2.92,4.56-3.99,4.91-4.11Z"/>
    <path class="cls-1" d="M77.43,112.2c-3.24,1.12-5.85-.24-5.96.13-.16.53,4.84,4.1,9.36,2.17.44-.19,1.84-.81,2.88-2.28,3.01-4.27-.36-10.95-.8-10.87-.31.06,1.09,3.39-.61,6.7-1.51,2.94-4.52,4.03-4.87,4.15Z"/>
  </g>
</svg>